<svg width="93" height="64" viewBox="0 0 93 64" fill="none" xmlns="http://www.w3.org/2000/svg">
<g clip-path="url(#clip0_0_56)">
<path d="M12.4071 21.8179C15.7183 21.8179 18.8458 23.1052 21.2372 25.4966L21.7889 26.0483L19.0292 28.8081L18.4774 28.2563C16.8218 26.6008 14.6145 25.6812 12.4071 25.6812C7.62425 25.6812 4.31252 29.3599 4.31238 34.3267C4.31238 39.2934 7.62373 42.9729 12.2225 42.9731C14.614 42.9731 16.8221 42.0532 18.2938 40.5815L18.8456 40.0298L21.6044 42.7896L21.0526 43.3413C18.8451 45.7326 15.5337 47.02 12.2225 47.02C5.4162 47.0198 0.265503 41.501 0.265503 34.3267C0.265655 27.1524 5.41673 21.6339 12.4071 21.8179ZM28.411 47.019H24.1805V20.897H28.411V47.019ZM68.5145 28.9917C70.906 28.9917 73.1138 29.9107 74.7694 31.3823L75.5048 31.9341L72.5614 34.6938L72.0096 34.1421C71.0899 33.2223 69.8022 32.854 68.5145 32.854C65.5713 32.854 63.548 34.8777 63.5477 37.8208C63.5477 40.7642 65.5712 42.9722 68.5145 42.9722C69.8022 42.9721 71.0899 42.4199 72.0096 41.6841L72.5614 41.1323L75.5048 44.0757L74.7694 44.6274C73.1138 46.0991 70.906 47.019 68.5145 47.019C63.3637 47.019 59.5009 43.1562 59.5009 38.0054C59.5009 32.8545 63.3637 28.9917 68.5145 28.9917ZM81.7596 30.4624C82.8634 29.359 84.335 28.9917 85.8065 28.9917C87.8299 28.9917 89.1175 29.5431 90.4052 30.8306C91.6928 32.1182 92.245 34.3259 92.245 36.7173V46.8354H88.0135V36.5337C88.0135 35.2461 88.1979 32.8543 85.6229 32.854C84.5192 32.854 81.7598 33.2223 81.7596 37.269V47.019H77.5282V20.897H81.7596V30.4624ZM55.6376 29.3579H58.7645V33.4048H55.6376V47.0181H51.4061V33.4048H48.2792V29.3579H51.4061V22.9194H55.6376V29.3579ZM35.7694 39.4751C35.7694 40.7628 36.1378 43.1535 38.7128 43.1538C39.8165 43.1538 43.1278 42.7859 43.1278 38.7388V29.3569H47.3593V47.0171H43.1278V45.5454C42.024 46.6491 40.1844 47.0171 38.7128 47.0171C36.6894 47.017 35.0336 46.4649 33.746 45.1772C32.2746 43.8895 31.5389 41.6818 31.5389 39.2905V29.3569H35.7694V39.4751ZM68.3309 35.063C69.9563 35.0632 71.2742 36.381 71.2743 38.0063C71.2743 39.6318 69.9563 40.9495 68.3309 40.9497C66.7054 40.9497 65.3876 39.6319 65.3876 38.0063C65.3877 36.3809 66.7054 35.063 68.3309 35.063Z" fill="white"/>
</g>
<defs>
<clipPath id="clip0_0_56">
<rect width="92.7347" height="64" fill="white" transform="translate(0.265381)"/>
</clipPath>
</defs>
</svg>
