<svg width="72" height="64" viewBox="0 0 72 64" fill="none" xmlns="http://www.w3.org/2000/svg">
<path d="M7.88911 32.6603C7.88911 38.4103 12.4999 43.0875 18.1839 43.0875H27.8006C28.4035 43.0875 28.8731 42.5127 28.8731 42.0055V22.8977C28.8737 22.3173 29.1016 21.7608 29.5068 21.3504C29.912 20.94 30.4614 20.7091 31.0345 20.7086C31.4096 20.7081 31.7783 20.8067 32.1042 20.9947C32.4301 21.1827 32.702 21.4536 32.893 21.7805L44.9732 42.8763C45.0761 43.0442 45.23 43.1737 45.4118 43.2454C45.5936 43.3171 45.7934 43.3271 45.9813 43.2739C46.1692 43.2206 46.3349 43.1071 46.4536 42.9503C46.5723 42.7934 46.6375 42.6018 46.6395 42.4043V22.8977C46.64 22.3173 46.8679 21.7608 47.2732 21.3504C47.6784 20.94 48.2278 20.7091 48.8009 20.7086C49.1759 20.7081 49.5446 20.8067 49.8706 20.9947C50.1965 21.1827 50.4684 21.4536 50.6594 21.7805L62.7275 42.8749C62.8304 43.0427 62.9842 43.1722 63.166 43.2439C63.3477 43.3156 63.5475 43.3257 63.7353 43.2725C63.9231 43.2194 64.0889 43.106 64.2076 42.9493C64.3264 42.7926 64.3917 42.6011 64.3938 42.4035V17.1133H60.6037V32.1667L53.5138 19.809C52.5115 18.0732 50.6104 16.9768 48.5867 16.9768C45.4173 16.9768 42.8409 19.5813 42.8409 22.7914V32.1675L35.751 19.8097C34.7458 18.0746 32.8448 16.979 30.8231 16.979C27.6537 16.979 25.0774 19.5834 25.0774 22.7936V38.1976C25.0795 38.758 24.6631 39.2466 24.0573 39.248H18.2123C16.4871 39.248 14.8326 38.5539 13.6127 37.3183C12.3929 36.0828 11.7075 34.407 11.7075 32.6596C11.7075 30.9123 12.3929 29.2365 13.6127 28.0009C14.8326 26.7654 16.4871 26.0712 18.2123 26.0712H23.1082V22.2331H18.1711C12.507 22.2331 7.88911 26.9032 7.88911 32.6603ZM65.655 17.1148V42.405C65.6545 42.9854 65.4266 43.5419 65.0214 43.9523C64.6161 44.3628 64.0667 44.5936 63.4936 44.5942C63.1186 44.5947 62.75 44.4962 62.4241 44.3083C62.0981 44.1204 61.8262 43.8497 61.6352 43.5229L49.5655 22.4271C49.4627 22.2593 49.3089 22.1298 49.1272 22.0581C48.9454 21.9864 48.7456 21.9763 48.5578 22.0295C48.37 22.0826 48.2042 22.196 48.0855 22.3527C47.9667 22.5094 47.9014 22.7009 47.8993 22.8985V42.405C47.8987 42.9854 47.6708 43.5419 47.2656 43.9523C46.8604 44.3628 46.311 44.5936 45.7379 44.5942C45.3621 44.5947 44.9928 44.4955 44.6667 44.3064C44.3406 44.1173 44.0691 43.845 43.8794 43.5165L31.7999 22.4271C31.646 22.1613 31.3445 21.9961 31.0317 21.9961C30.7937 21.9968 30.5657 22.0929 30.3975 22.2633C30.2292 22.4337 30.1344 22.6646 30.1336 22.9056V42.0055C30.1336 43.2628 29.0426 44.3671 27.7984 44.3671H18.1832C15.1187 44.3641 12.1806 43.1297 10.0137 40.9349C7.84674 38.7401 6.62805 35.7642 6.62504 32.6603C6.62805 29.5564 7.84674 26.5805 10.0137 24.3858C12.1806 22.191 15.1187 20.9566 18.1832 20.9536H23.1203V17.1148H18.196C9.71923 17.1148 2.84705 24.0746 2.84705 32.6611C2.84705 41.2475 9.71214 48.2074 18.196 48.2074H27.9041C31.5814 48.2095 33.9464 46.0268 33.9336 42.0012V33.1338L41.0236 45.4915C42.0259 47.2274 43.9269 48.3237 45.9507 48.3237C49.1201 48.3237 51.6964 45.7193 51.6964 42.5099V33.1338L58.7864 45.4915C59.7894 47.2274 61.6905 48.3237 63.7135 48.3237C66.8829 48.3237 69.4593 45.7193 69.4593 42.5099V17.1148H65.655Z" fill="white"/>
</svg>
