<svg width="134" height="64" viewBox="0 0 134 64" fill="none" xmlns="http://www.w3.org/2000/svg">
<g clip-path="url(#clip0_0_37)">
<path d="M15.0509 35.3147C17.2215 35.3147 18.9696 37.1419 18.9698 39.4124V49.5012C18.9698 51.7718 17.2217 53.5999 15.0509 53.5999C12.8802 53.5998 11.1329 51.7717 11.1329 49.5012V39.4124C11.1332 37.1419 12.8803 35.3148 15.0509 35.3147ZM25.5001 45.761C27.6709 45.761 29.4181 47.5082 29.4181 49.679C29.418 51.8497 27.6708 53.5969 25.5001 53.5969C23.3294 53.5969 21.5822 51.8497 21.5822 49.679V45.761H25.5001ZM58.3439 25.2874C61.4021 25.2874 63.9087 26.2477 65.2667 27.1887C65.627 27.4176 65.7677 27.8684 65.5997 28.2561L64.4943 30.5286C64.2898 30.8995 63.769 30.852 63.5031 30.718C62.5356 30.2361 60.9515 29.4222 59.5138 29.2717C59.1564 29.2341 58.7821 29.2148 58.4034 29.2229C57.1204 29.2508 56.05 29.6887 55.671 30.6506C55.5947 30.8417 55.5539 31.0324 55.5499 31.2219C55.5168 32.4896 57.3088 32.947 59.4816 33.3118C63.5238 33.9928 66.5782 35.1582 66.5782 39.2454C66.5782 42.7167 63.7528 45.8553 58.2677 45.759C54.6406 45.6872 52.0681 44.4841 50.6886 43.3127C50.6421 43.2736 50.1168 42.7479 50.3976 42.1174C50.7201 41.3039 51.2613 40.3695 51.6886 39.8792C51.9263 39.5605 52.5537 39.5099 52.8781 39.7092C54.015 40.4035 55.8696 41.5161 58.0402 41.5881L58.5441 41.5911C60.4839 41.5453 61.657 40.8235 61.632 39.6047C61.6104 38.5314 60.0729 37.9054 57.6427 37.4514C53.7369 36.7278 50.596 35.4636 50.5958 31.6038L50.5734 31.261C50.7399 27.7253 53.4809 25.2874 58.3439 25.2874ZM105.142 25.5442C109.057 25.52 111.903 27.2637 112.405 28.0872C112.505 28.2799 112.454 28.4425 112.383 28.637C111.875 29.6094 111.285 30.5366 110.618 31.4075C110.364 31.7272 110.087 31.4526 109.768 31.2434C108.878 30.6602 107.185 29.9485 105.522 29.9485C102.504 29.9487 100.253 31.9835 100.279 35.7258C100.303 39.3198 102.441 41.2923 105.532 41.3625C107.14 41.4015 108.699 40.4935 109.522 39.7502C109.784 39.5251 110.057 39.6355 110.358 39.8674C110.948 40.4604 111.793 41.3759 112.264 41.9915C112.571 42.3411 112.342 42.6843 112.231 42.8215C110.957 44.4057 108.497 45.7371 105.242 45.7551C98.4279 45.8038 95.0476 41.0927 95.0157 35.6204L95.0382 35.1311C95.2407 29.9036 99.0598 25.5853 105.142 25.5442ZM84.8214 25.5784C90.1902 25.6878 93.027 28.1633 93.2911 34.0686C93.3991 36.5095 93.2202 43.3182 93.174 45.0139C93.1952 45.1296 93.1576 45.2481 93.0734 45.3313C93.0314 45.3725 92.9802 45.4037 92.924 45.4211C92.8678 45.4385 92.808 45.4421 92.7501 45.4319L88.8839 45.4397C88.4103 45.4168 88.3554 45.1868 88.3488 44.9436L88.3204 43.9338C88.3154 43.7319 88.122 43.7383 88.0714 43.7708C86.8116 45.0777 84.7471 45.7307 82.5529 45.7307C79.2183 45.7307 75.8936 43.8034 75.9034 39.9856C75.9136 36.0765 78.7348 34.1479 81.8331 33.6936C83.8178 33.4029 86.0551 33.6609 87.7472 34.3225C87.8552 34.3645 88.0755 34.3026 88.0792 34.1526C88.0858 33.6546 88.0625 32.7052 87.963 32.2542C87.7135 31.1074 86.7409 30.1837 84.6964 29.9338C84.2761 29.8823 83.8515 29.8716 83.4288 29.9016C81.8031 30.0273 79.8484 31.2738 79.0372 31.7395C78.846 31.8488 78.5489 31.7683 78.4523 31.6458C77.9804 31.0451 76.791 29.2921 76.6984 29.01C76.6068 28.7293 76.7363 28.495 76.9025 28.3479L76.9093 28.3801C78.1976 27.248 80.7324 25.4852 84.8214 25.5784ZM118.413 16.9202C118.581 16.928 118.881 17.1126 118.888 17.3577L119.048 33.0491C119.05 33.3996 119.193 33.4539 119.443 33.2092L126.939 25.8987C127.281 25.572 127.73 25.5436 128.103 25.6204C128.986 25.8051 130.538 26.157 131.498 26.4377C131.994 26.5834 132.346 26.8522 131.761 27.4729L125.269 33.8704C125.136 34.001 125.129 34.1648 125.252 34.3284L128.801 38.7991L132.535 44.304C132.679 44.5179 132.586 44.7325 132.326 44.7913C131.277 45.0264 127.863 45.49 127.544 45.5129L127.532 45.5422C127.373 45.5472 127.164 45.5366 126.984 45.2854L124.603 41.9026C123.306 40.0146 121.907 37.9007 121.416 37.2502C121.316 37.1165 121.159 37.1097 121.06 37.2043L119.328 38.9885C119.247 39.0553 119.198 39.302 119.195 39.3147L119.122 45.1311C119.122 45.1324 119.061 45.4689 118.573 45.469C117.579 45.487 115.453 45.4905 114.594 45.4417C114.379 45.4263 114.211 45.2512 114.208 45.0393C114.088 42.0065 113.806 20.3384 114.005 17.386C114.056 17.1435 114.252 16.9561 114.499 16.9124L118.413 16.9202ZM69.1652 17.0774C69.9551 16.8765 72.4181 16.8487 73.2823 16.9631C73.4733 16.9876 73.5941 17.0907 73.6056 17.3684C73.7418 20.5624 73.8353 40.7978 73.6193 45.0491C73.6164 45.1143 73.6005 45.1786 73.5724 45.2375C73.5442 45.2966 73.5042 45.3495 73.4552 45.3928C73.3551 45.4812 73.2242 45.5269 73.0909 45.5188L69.504 45.512H69.5021C69.125 45.4988 68.9344 45.3241 68.8927 44.9651C68.851 44.6056 68.7213 25.6168 68.9142 17.3801C68.9148 17.234 69.0195 17.1074 69.1652 17.0774ZM8.52063 39.2327C8.52058 41.4034 6.77243 43.1506 4.60168 43.1506C2.43112 43.1504 0.683764 41.4033 0.683716 39.2327C0.683716 37.062 2.43109 35.3149 4.60168 35.3147H8.52063V39.2327ZM35.7687 35.3147C38.0392 35.3147 39.8673 37.0619 39.8673 39.2327C39.8673 41.4034 38.0393 43.1506 35.7687 43.1506H25.6798C23.4095 43.1504 21.5822 41.4033 21.5822 39.2327C21.5822 37.062 23.4093 35.3149 25.6798 35.3147H35.7687ZM85.5597 36.9163C83.0129 37.035 80.7896 37.8091 80.7208 39.7922C80.7208 41.4698 82.1058 42.2955 84.0519 42.1877C85.9167 42.0114 87.3393 41.2154 87.9659 40.1614C88.1987 39.7693 88.2323 38.3075 88.2189 37.6819C88.2156 37.5512 87.9485 37.2974 87.8302 37.2493C87.2452 37.0077 86.811 36.9319 86.0734 36.9026L85.5597 36.9163ZM14.8712 24.8645C17.1417 24.8647 18.9698 26.6119 18.9698 28.7825C18.9698 30.9531 17.1417 32.7012 14.8712 32.7014H4.78235C2.51166 32.7014 0.683716 30.9532 0.683716 28.7825C0.683803 26.6118 2.51171 24.8645 4.78235 24.8645H14.8712ZM35.9493 24.8645C38.1199 24.8647 39.8672 26.6119 39.8673 28.7825C39.8673 30.9531 38.12 32.7012 35.9493 32.7014H32.0304V28.7825C32.0305 26.6118 33.7786 24.8645 35.9493 24.8645ZM25.5001 14.4143C27.6709 14.4144 29.4181 16.2423 29.4181 18.5129V28.6018C29.4179 30.8723 27.6707 32.7004 25.5001 32.7004C23.3295 32.7004 21.5824 30.8723 21.5822 28.6018V18.5129C21.5822 16.2422 23.3293 14.4143 25.5001 14.4143ZM15.0509 14.4143C17.2215 14.4143 18.9696 16.1617 18.9698 18.3323V22.2512H15.0509C12.8802 22.2511 11.1329 20.503 11.1329 18.3323C11.1331 16.1617 12.8803 14.4144 15.0509 14.4143Z" fill="white"/>
</g>
<defs>
<clipPath id="clip0_0_37">
<rect width="133.224" height="62.6939" fill="white" transform="translate(0.0306396 0.653076)"/>
</clipPath>
</defs>
</svg>
