<svg width="180" height="64" viewBox="0 0 180 64" fill="none" xmlns="http://www.w3.org/2000/svg">
<path d="M128.708 28.7166C129.987 28.7166 131.092 28.9393 132.04 29.4021C132.987 29.8491 133.777 30.4721 134.409 31.2703C135.04 32.0684 135.498 32.9941 135.814 34.0476C136.13 35.101 136.289 36.2343 136.289 37.4314C136.289 38.5328 136.146 39.6031 135.862 40.6248C135.578 41.6621 135.151 42.5719 134.583 43.3699C134.014 44.168 133.287 44.7904 132.403 45.2693C131.518 45.7481 130.492 45.988 129.292 45.988C128.77 45.988 128.249 45.9402 127.728 45.8445C127.207 45.7487 126.702 45.589 126.228 45.3816C125.754 45.1741 125.296 44.9024 124.901 44.5671C124.49 44.232 124.159 43.8487 123.875 43.4177H123.811V51.5906H120.243V29.1628H123.622V31.3816H123.685C124.19 30.4239 124.886 29.7536 125.786 29.3386C126.686 28.9236 127.649 28.7166 128.708 28.7166ZM26.5875 22.9226H42.9498L29.7144 32.6443L34.7681 48.3669L21.5338 38.6462L8.28278 48.3669L13.3531 32.6443L0.102112 22.907L16.4644 22.9226L21.5338 7.18335L26.5875 22.9226ZM99.9957 28.7166C100.833 28.7166 101.638 28.8115 102.396 28.9871C103.154 29.1626 103.849 29.4501 104.464 29.865C105.08 30.264 105.586 30.791 105.997 31.4294C106.407 32.068 106.66 32.8506 106.77 33.7605H103.044C102.87 32.8985 102.491 32.3076 101.875 32.0203C101.259 31.717 100.548 31.573 99.7584 31.573C99.5057 31.573 99.2054 31.5896 98.858 31.6375C98.5106 31.6853 98.1943 31.765 97.8785 31.8767C97.5786 31.9884 97.326 32.1641 97.105 32.3875C96.8997 32.6109 96.7896 32.8983 96.7896 33.2654C96.7896 33.7123 96.9475 34.0634 97.2476 34.3347C97.5476 34.6059 97.9419 34.8298 98.4312 35.0212C98.9208 35.1968 99.4743 35.3564 100.106 35.4841C100.738 35.6118 101.385 35.7555 102.048 35.8992C102.696 36.0428 103.328 36.2346 103.96 36.4421C104.591 36.6496 105.144 36.9373 105.633 37.3044C106.123 37.6716 106.518 38.1182 106.818 38.6609C107.118 39.2036 107.276 39.8901 107.276 40.6882C107.276 41.6617 107.055 42.4756 106.613 43.1619C106.171 43.8323 105.602 44.3914 104.907 44.8064C104.212 45.2213 103.423 45.5406 102.57 45.7322C101.717 45.9237 100.864 46.0193 100.027 46.0193C99.0004 46.0193 98.0527 45.9081 97.1841 45.6687C96.3155 45.4293 95.5571 45.0779 94.9254 44.615C94.2938 44.1362 93.7886 43.5457 93.4254 42.8435C93.0621 42.1412 92.872 41.2947 92.8404 40.321H96.442V40.2888C96.5525 41.3424 96.9474 42.0766 97.6265 42.5076C98.3214 42.9226 99.1427 43.1462 100.106 43.1462C100.438 43.1462 100.816 43.114 101.243 43.0662C101.669 43.0183 102.08 42.907 102.443 42.7634C102.822 42.6198 103.122 42.3963 103.375 42.1091C103.611 41.8218 103.722 41.4539 103.707 40.991C103.691 40.5284 103.517 40.1454 103.202 39.8582C102.886 39.5549 102.49 39.331 102.001 39.1394C101.511 38.9639 100.958 38.8042 100.327 38.6765C99.695 38.5488 99.063 38.4051 98.4156 38.2615C97.7524 38.1178 97.1047 37.927 96.4888 37.7195C95.8729 37.512 95.3202 37.2243 94.8306 36.8572C94.341 36.506 93.946 36.0428 93.6617 35.4841C93.3617 34.9255 93.2203 34.2389 93.2203 33.4089C93.2203 32.5151 93.4413 31.7811 93.8677 31.1746C94.2941 30.568 94.8463 30.0886 95.4937 29.7214C96.157 29.3543 96.8837 29.0988 97.689 28.9392C98.4945 28.7955 99.2692 28.7166 99.9957 28.7166ZM79.7007 39.2039C79.7008 40.6404 79.9693 41.6621 80.522 42.2527C81.059 42.8432 81.833 43.1462 82.8121 43.1462C83.5699 43.1462 84.1857 43.0349 84.691 42.7957C85.1964 42.5562 85.6077 42.2523 85.9078 41.8533C86.2235 41.4703 86.4444 40.9915 86.5865 40.449C86.7286 39.9062 86.7916 39.315 86.7916 38.6765V29.1794H90.3609V45.5408H86.855V43.2585H86.7916C86.3494 44.0883 85.7019 44.7423 84.8336 45.2371C83.9649 45.7319 83.0805 45.988 82.1802 45.988C80.0483 45.988 78.5009 45.4607 77.5533 44.3914C76.6057 43.3219 76.1314 41.7094 76.1314 39.5544V29.1628H79.7007V39.2039ZM160.294 28.7166C161.589 28.7166 162.742 28.94 163.753 29.3708C164.763 29.8018 165.617 30.4077 166.328 31.158C167.023 31.9242 167.559 32.8349 167.922 33.8884C168.286 34.9418 168.475 36.0909 168.475 37.3357C168.475 38.5967 168.286 39.7626 167.922 40.8162C167.559 41.8695 167.022 42.7795 166.328 43.5457C165.633 44.3119 164.763 44.9027 163.753 45.3337C162.742 45.7645 161.589 45.988 160.294 45.988C159 45.988 157.846 45.7647 156.836 45.3337C155.825 44.9028 154.972 44.2958 154.261 43.5457C153.566 42.7795 153.029 41.8696 152.666 40.8162C152.302 39.7626 152.113 38.5967 152.113 37.3357C152.113 36.0909 152.302 34.9418 152.666 33.8884C153.029 32.8349 153.566 31.9242 154.261 31.158C154.956 30.3919 155.825 29.8018 156.836 29.3708C157.846 28.9399 158.999 28.7166 160.294 28.7166ZM114.494 29.1628H117.715V31.8611H114.494V40.6082C114.494 40.9913 114.509 41.3111 114.541 41.5984C114.572 41.8696 114.652 42.1091 114.762 42.3005C114.873 42.4919 115.046 42.6355 115.283 42.7312C115.52 42.827 115.82 42.8748 116.231 42.8748C116.484 42.8748 116.736 42.8751 116.989 42.8591C117.241 42.8432 117.494 42.8107 117.747 42.7468V45.5408C117.352 45.5886 116.957 45.6208 116.594 45.6687C116.215 45.7166 115.836 45.7322 115.441 45.7322C114.493 45.7322 113.735 45.6363 113.167 45.4607C112.598 45.2851 112.141 45.0139 111.825 44.6628C111.493 44.3117 111.287 43.8809 111.161 43.3542C111.05 42.8276 110.971 42.2208 110.956 41.5505V31.8923H108.255V29.1628H110.924V24.2468H114.494V29.1628ZM175.788 29.1628H179.009V31.8611H175.788V40.6082C175.788 40.9913 175.803 41.3111 175.835 41.5984C175.866 41.8696 175.946 42.1091 176.056 42.3005C176.167 42.4919 176.34 42.6355 176.577 42.7312C176.814 42.827 177.114 42.8748 177.525 42.8748C177.778 42.8748 178.03 42.8751 178.283 42.8591C178.535 42.8432 178.788 42.8106 179.041 42.7468V45.5408C178.646 45.5886 178.251 45.6208 177.888 45.6687C177.509 45.7166 177.13 45.7322 176.735 45.7322C175.787 45.7322 175.029 45.6363 174.461 45.4607C173.892 45.2851 173.435 45.0139 173.119 44.6628C172.787 44.3117 172.581 43.8809 172.455 43.3542C172.344 42.8276 172.265 42.2208 172.25 41.5505V31.8923H169.549V29.1628H172.218V24.2468H175.788V29.1628ZM65.2339 26.3376H58.1109V45.5408H54.1949V26.3376H47.1031V22.9216H65.2339V26.3376ZM142.589 45.5408H139.02V29.1628H142.589V45.5408ZM149.349 45.5408H145.78V22.9216H149.349V45.5408ZM72.5933 28.7166C73.004 28.7166 73.3045 28.7318 73.4625 28.7478C73.6203 28.7638 73.7781 28.7963 73.9517 28.8123V32.2917C73.6992 32.2439 73.4466 32.2123 73.1783 32.1804C72.9098 32.1485 72.6566 32.1326 72.4039 32.1326C71.804 32.1326 71.2355 32.2595 70.6988 32.4988C70.1618 32.7382 69.704 33.1062 69.3091 33.5691C68.9143 34.048 68.5978 34.6226 68.3609 35.325C68.1241 36.0272 68.0132 36.8254 68.0132 37.7351V45.5251H64.4439V29.1628H67.8082V32.324H67.8716C67.9822 31.877 68.1878 31.446 68.4879 31.031C68.7878 30.6161 69.1505 30.2167 69.5767 29.8816C70.0031 29.5304 70.4774 29.2584 70.9986 29.0349C71.5196 28.8275 72.0565 28.7166 72.5933 28.7166ZM128.234 31.573C126.734 31.573 125.597 32.1005 124.838 33.1541C124.08 34.2076 123.701 35.6121 123.701 37.3679C123.701 38.198 123.796 38.9644 124.002 39.6667C124.207 40.3688 124.491 40.9754 124.901 41.4861C125.296 41.9969 125.77 42.396 126.323 42.6833C126.876 42.9866 127.523 43.1306 128.25 43.1306C129.071 43.1306 129.75 42.9551 130.319 42.6199C130.887 42.2847 131.345 41.837 131.709 41.3103C132.072 40.7678 132.34 40.1614 132.498 39.4753C132.64 38.789 132.719 38.0862 132.719 37.3679C132.719 36.6336 132.625 35.915 132.435 35.2126C132.246 34.5104 131.961 33.9038 131.582 33.3611C131.203 32.8185 130.729 32.3873 130.176 32.0681C129.608 31.7489 128.96 31.573 128.234 31.573ZM160.294 31.573C159.505 31.573 158.809 31.7486 158.225 32.0837C157.641 32.419 157.167 32.8665 156.788 33.3933C156.409 33.936 156.14 34.5426 155.951 35.2449C155.777 35.9471 155.682 36.6335 155.682 37.3357C155.682 38.054 155.777 38.7567 155.951 39.4431C156.124 40.1294 156.409 40.752 156.788 41.2947C157.167 41.8374 157.641 42.2847 158.225 42.6199C158.81 42.971 159.505 43.1306 160.294 43.1306C161.084 43.1306 161.779 42.9549 162.363 42.6199C162.947 42.2847 163.421 41.8374 163.8 41.2947C164.179 40.752 164.448 40.1295 164.637 39.4431C164.811 38.7567 164.906 38.054 164.906 37.3357C164.906 36.6334 164.811 35.9471 164.637 35.2449C164.464 34.5426 164.179 33.936 163.8 33.3933C163.421 32.8506 162.947 32.419 162.363 32.0837C161.779 31.7487 161.084 31.573 160.294 31.573ZM142.589 26.3376H139.02V22.9216H142.589V26.3376Z" fill="white"/>
</svg>
