<svg width="26" height="27" viewBox="0 0 26 27" fill="none" xmlns="http://www.w3.org/2000/svg">
<g clip-path="url(#clip0_0_521)">
<path d="M13 0.5C20.1797 0.5 26 6.3203 26 13.5C26 17.0031 24.6115 20.1799 22.3584 22.5176C21.1765 18.4634 17.4358 15.5 13 15.5C8.56412 15.5 4.8224 18.4633 3.64062 22.5176C1.38781 20.1799 0 17.0029 0 13.5C0 6.3203 5.8203 0.5 13 0.5ZM13 4.83301C10.607 4.83301 8.66734 6.77308 8.66699 9.16602C8.66699 11.5592 10.6068 13.5 13 13.5C15.3932 13.5 17.333 11.5592 17.333 9.16602C17.3327 6.77308 15.393 4.83301 13 4.83301Z" fill="#36485C"/>
<circle cx="13" cy="13.5" r="12.25" stroke="#36485C" stroke-width="1.5"/>
</g>
<defs>
<clipPath id="clip0_0_521">
<rect width="26" height="26" fill="white" transform="translate(0 0.5)"/>
</clipPath>
</defs>
</svg>
